PathFileType	4	(X/Y/Z)	C:\Users\Willi\SynologyDrive\Deimel_MSc_Deadlift\Athlete_03\Athlete_3_22_07_06\dl_85\marker_experimental.trc
DataRate	CameraRate	NumFrames	NumMarkers	Units	OrigDataRate	OrigDataStartFrame	OrigNumFrames
200.000000	200.000000	4	59	mm	200.000000	399	1597
Frame#	Time	BR			GLAB			RFHD			LFHD			C7			T6			SPINMOL			SPINM2			SPINM3			BELTOL			BELT2			BELT3			SACROL			SACR2			SACR3			LTHOL			LTH2			LTH3			LSHAOL			LSHA2			LSHA3			LHEE			LTOE			LM5			RTHOL			RTH2			RTH3			RSHAOL			RSHA2			RSHA3			RHEE			RTOE			RM5			STRN			XIPH			LACR			LUAOL			LUA3			LLAOL			LLA2			LLA3			LWRU			RACR			RUAOL			RUA2			RUA3			RLAOL			RLA2			RLA3			RWRU			LUA2			BL			T12			USERMO0			USERMO1			USERMO2			USERMO3			USERMO4			USERMO5			
		X1	Y1	Z1	X2	Y2	Z2	X3	Y3	Z3	X4	Y4	Z4	X5	Y5	Z5	X6	Y6	Z6	X7	Y7	Z7	X8	Y8	Z8	X9	Y9	Z9	X10	Y10	Z10	X11	Y11	Z11	X12	Y12	Z12	X13	Y13	Z13	X14	Y14	Z14	X15	Y15	Z15	X16	Y16	Z16	X17	Y17	Z17	X18	Y18	Z18	X19	Y19	Z19	X20	Y20	Z20	X21	Y21	Z21	X22	Y22	Z22	X23	Y23	Z23	X24	Y24	Z24	X25	Y25	Z25	X26	Y26	Z26	X27	Y27	Z27	X28	Y28	Z28	X29	Y29	Z29	X30	Y30	Z30	X31	Y31	Z31	X32	Y32	Z32	X33	Y33	Z33	X34	Y34	Z34	X35	Y35	Z35	X36	Y36	Z36	X37	Y37	Z37	X38	Y38	Z38	X39	Y39	Z39	X40	Y40	Z40	X41	Y41	Z41	X42	Y42	Z42	X43	Y43	Z43	X44	Y44	Z44	X45	Y45	Z45	X46	Y46	Z46	X47	Y47	Z47	X48	Y48	Z48	X49	Y49	Z49	X50	Y50	Z50	X51	Y51	Z51	X52	Y52	Z52	X53	Y53	Z53	X54	Y54	Z54	X55	Y55	Z55	X56	Y56	Z56	X57	Y57	Z57	X58	Y58	Z58	X59	Y59	Z59	

400	1.995	202.0055084228516	509.1710815429688	-92.55576324462888	505.4056091308594	1373.062622070312	-1186.938232421875	458.9470520019531	1413.617919921875	-1108.335205078125	455.9473571777344	1412.526000976562	-1267.359008789062	260.7920227050781	1360.829833984375	-1188.24365234375	94.98392486572266	1254.003540039062	-1203.6513671875	71.49517822265625	1237.34375	-1206.421142578125	26.12955856323242	1196.214111328125	-1155.344360351562	28.78218269348145	1192.599853515625	-1204.776611328125	-48.75558090209961	1130.099731445312	-1214.042846679688	-80.06939697265625	1077.001098632812	-1163.419921875	-82.1341552734375	1077.557250976562	-1213.385009765625	-105.6728134155273	1004.416442871094	-1234.34228515625	-97.59284210205078	1011.233337402344	-1184.1357421875	-137.8373260498047	960.4721069335939	-1196.544555664062	36.24298477172852	750.2893066406251	-1439.11865234375	12.41296482086182	675.7899169921876	-1421.804321289062	56.14458084106445	691.6885375976564	-1441.453735351562	92.36927795410156	344.8241577148439	-1456.804077148438	57.95959091186523	274.9398803710939	-1445.863159179688	105.2721099853516	284.5076904296876	-1452.230346679688	38.99518966674805	66.79450225830087	-1371.644775390625	249.4149475097656	73.93724822998055	-1377.387084960938	207.0095672607422	53.63537979125986	-1484.8828125	20.86963653564453	717.2675170898439	-983.3065185546875	76.94960784912109	665.2572021484376	-959.9750366210938	33.16797256469727	656.2528076171876	-982.5809936523438	64.72315216064453	334.9312133789063	-967.6705932617188	113.9774627685547	272.6123352050782	-966.49853515625	65.05077362060547	275.1997375488282	-978.8699951171875	45.01607513427734	64.04010772705085	-1070.298095703125	253.2155609130859	67.22133636474615	-1039.843994140625	200.6474914550781	66.4828720092774	-943.8385620117188	336.8296203613281	1207.6875	-1192.697021484375	nan	nan	nan	298.4543762207031	1230.649536132812	-1399.110473632812	270.4939880371094	1088.156860351562	-1459.510986328125	285.7874450683594	1024.19970703125	-1458.568237304688	265.82958984375	799.3901977539064	-1456.458740234375	245.3222503662109	738.8428344726564	-1470.661254882812	273.1148681640625	741.4569702148439	-1429.7158203125	249.2700500488281	646.3759765625001	-1452.338745117188	288.4960632324219	1222.778076171875	-993.5999145507811	266.3359985351562	1041.481689453125	-965.8422851562499	279.8508605957031	983.5661010742189	-994.0286254882811	257.1729736328125	978.0025634765626	-949.4299316406249	257.1478576660156	780.7952880859376	-965.1819458007812	264.9940490722656	725.8035278320314	-998.2073364257812	245.8324279785156	719.2490234375001	-951.2964477539062	238.8179779052734	642.2556762695314	-953.8644409179688	239.9007568359375	1032.968627929688	-1480.753784179688	194.3594055175781	530.9265747070314	-2314.916015625	5.217117786407471	1156.258666992188	-1207.707885742188	0.07707580178976059	0.02238520048558713	-0.1240819990634918	0.1721239984035492	0.318356990814209	-0.192794993519783	0.132179006934166	0.07535559684038164	-0.1592970043420792	0.1652690023183823	1.634660005569458	-1.939749956130981	2.017560005187988	2.973200082778931	-1.964800000190735	2.890929937362671	0	0	
401	2	201.9800262451172	511.0353698730469	-92.4995193481445	504.1070251464844	1375.197143554688	-1186.84228515625	457.6651611328125	1415.830932617188	-1108.293334960938	454.7236938476562	1414.690673828125	-1267.319458007812	259.3206176757812	1362.727905273438	-1188.290893554688	94.06242370605469	1254.887573242188	-1203.728149414062	70.67375183105469	1238.101928710938	-1206.509399414062	25.51561737060547	1196.735595703125	-1155.436645507812	28.22970962524414	1193.098510742188	-1204.867919921875	-48.92165756225586	1130.160888671875	-1214.084716796875	-79.93450164794922	1076.886596679688	-1163.4794921875	-81.99968719482422	1077.440185546875	-1213.43994140625	-105.1736602783203	1004.253540039063	-1234.380004882812	-97.08063507080078	1011.083557128906	-1184.19970703125	-137.2006988525391	960.2223510742189	-1196.604614257812	36.87994384765625	750.4774169921876	-1439.076904296875	12.89205169677734	676.0426635742189	-1421.707885742188	56.65231704711914	691.8338012695314	-1441.3779296875	92.38439178466797	344.851043701172	-1456.6953125	57.9927864074707	274.9480590820314	-1445.74169921875	105.2779083251953	284.5269165039064	-1452.15185546875	38.98262023925781	66.81747436523446	-1371.62353515625	249.4134368896484	73.93741607666024	-1377.4111328125	207.0078735351562	53.63320159912119	-1484.888305664062	21.48625373840332	717.4538574218751	-983.583251953125	77.42736053466797	665.2933349609376	-960.2506713867188	33.64867401123047	656.4089355468751	-982.9164428710938	64.81649017333984	335.0029602050782	-967.9442749023438	114.0497512817383	272.6654663085938	-966.7007446289062	65.12300109863281	275.2678222656251	-979.0985107421875	45.04799270629883	64.04681396484382	-1070.3330078125	253.2101135253906	67.1858749389649	-1039.85595703125	200.6558990478516	66.49586486816412	-943.855224609375	336.0748291015625	1209.935302734375	-1192.694702148438	nan	nan	nan	297.4837341308594	1232.722534179688	-1399.188110351562	269.9570007324219	1090.13818359375	-1459.57373046875	285.4818115234375	1026.232666015625	-1458.617065429688	265.7536315917969	801.2865600585939	-1456.334838867188	245.3017883300781	740.7424926757814	-1470.592041015625	273.0047912597656	743.3560791015626	-1429.566650390625	249.2606353759766	648.2655639648439	-1452.271850585938	287.455322265625	1224.882446289062	-993.5476684570311	265.7751770019531	1043.459838867188	-965.8331298828124	279.4130554199219	985.5657348632814	-994.0251464843749	256.7491455078125	979.9659423828126	-949.4151000976561	256.9937744140625	782.7315673828126	-965.1693115234375	264.8970031738281	727.7492065429689	-998.1925659179688	245.7341156005859	721.1792602539064	-951.25439453125	238.79052734375	644.1571655273439	-953.8348388671875	239.5260925292969	1034.818237304688	-1480.7265625	194.3751068115234	532.6840820312501	-2314.857177734375	4.876796245574951	1156.637573242188	-1207.777709960938	0.07605650275945663	0.02261090092360974	-0.1213330030441284	0.1630530059337616	0.3167670071125031	-0.1938260048627853	0.1343600004911423	0.07606779783964158	-0.1596260070800781	0.1625680029392242	1.597749948501587	-1.959980010986328	2.017780065536499	2.973180055618286	-1.963240027427673	2.892529964447021	0	0	
402	2.005	201.9565734863281	512.8960571289062	-92.44388580322263	502.7889709472656	1377.354125976562	-1186.7548828125	456.3627014160156	1418.068237304688	-1108.269165039062	453.4745178222656	1416.870239257812	-1267.297485351562	257.8308715820312	1364.632934570312	-1188.344970703125	93.13131713867188	1255.775146484375	-1203.798217773438	69.8494873046875	1238.859375	-1206.592895507812	24.90031623840332	1197.258911132812	-1155.519897460938	27.67179679870605	1193.601806640625	-1204.950561523438	-49.08159255981445	1130.226318359375	-1214.118041992188	-79.79263305664062	1076.778686523438	-1163.528198242188	-81.86124420166016	1077.330810546875	-1213.4853515625	-104.6697158813477	1004.102355957031	-1234.406616210938	-96.56196594238281	1010.942993164063	-1184.249633789062	-136.5611724853516	959.9871215820314	-1196.650268554688	37.50456237792969	750.6696166992189	-1439.028198242188	13.35227012634277	676.3027954101564	-1421.602172851562	57.14189529418945	691.9818725585939	-1441.29443359375	92.37208557128906	344.878875732422	-1456.57666015625	58.01984786987305	274.9446716308595	-1445.603881835938	105.262825012207	284.5476684570314	-1452.064819335938	38.97060775756836	66.8374557495118	-1371.602905273438	249.4100799560547	73.93780517578134	-1377.4375	207.0057983398438	53.63122177124033	-1484.8935546875	22.11564254760742	717.6502685546876	-983.8648681640625	77.91544342041016	665.3331909179689	-960.544921875	34.13422393798828	656.5739746093751	-983.2596435546875	64.90425109863281	335.0765380859376	-968.2333984375	114.1192398071289	272.7232666015626	-966.9194946289062	65.19149780273438	275.3367004394532	-979.3372802734375	45.07976913452148	64.05220794677741	-1070.368896484375	253.2019653320312	67.1460800170899	-1039.869262695312	200.6647186279297	66.51071929931646	-943.8742065429688	335.3039855957031	1212.196411132812	-1192.701416015625	nan	nan	nan	296.4893798828125	1234.807006835938	-1399.2744140625	269.400634765625	1092.13037109375	-1459.642822265625	285.1579284667969	1028.279296875	-1458.67236328125	265.6700134277344	803.1910400390626	-1456.208129882812	245.281005859375	742.6540527343751	-1470.52685546875	272.8957824707031	745.2664794921876	-1429.422973632812	249.2507934570312	650.1655273437501	-1452.207153320312	286.4144897460938	1226.995239257812	-993.5092163085936	265.2206115722656	1045.448364257812	-965.8343505859374	278.9819641113281	987.5772705078126	-994.0307006835936	256.3333435058594	981.9396972656251	-949.4097290039061	256.8449401855469	784.6781616210939	-965.1613159179688	264.8044128417969	729.7048950195314	-998.1827392578125	245.6438446044922	723.1195678710939	-951.2210083007812	238.7662811279297	646.0682983398439	-953.8095092773438	239.1331329345703	1036.677978515625	-1480.702758789062	194.3975219726562	534.4284057617189	-2314.7978515625	4.536174774169922	1157.019775390625	-1207.838745117188	0.07505670189857483	0.02288540080189706	-0.119157001376152	0.1521420031785965	0.3161779940128326	-0.1953299939632415	0.1367429941892624	0.07685240358114244	-0.1604339927434921	0.1607619971036911	1.56344997882843	-1.979900002479553	2.01803994178772	2.972860097885132	-1.961670041084289	2.894109964370728	0	0	
403	2.01	201.9347076416016	514.7544555664062	-92.38878631591794	501.4528198242188	1379.532592773438	-1186.68017578125	455.0415344238281	1420.327270507812	-1108.263671875	452.2006225585938	1419.064575195312	-1267.294189453125	256.3243408203125	1366.54296875	-1188.406494140625	92.19282531738281	1256.664672851562	-1203.862670898438	69.02429962158203	1239.615356445312	-1206.673095703125	24.28492546081543	1197.783813476562	-1155.595581054688	27.11072158813477	1194.1083984375	-1205.026000976562	-49.2333869934082	1130.2958984375	-1214.144653320312	-79.64310455322266	1076.678100585938	-1163.567749023438	-81.71753692626953	1077.229370117188	-1213.5234375	-104.1601181030273	1003.96435546875	-1234.42431640625	-96.03644561767578	1010.813110351563	-1184.287109375	-135.9191436767578	959.7681884765626	-1196.6826171875	38.11820220947266	750.8659667968751	-1438.972290039062	13.79502964019775	676.5702514648439	-1421.487182617188	57.61462783813477	692.1325683593751	-1441.203247070312	92.33419799804688	344.9076538085939	-1456.448364257812	58.03619384765625	274.9336547851564	-1445.453735351562	105.2279434204102	284.5702514648439	-1451.969604492188	38.95941925048828	66.85445404052743	-1371.5830078125	249.4050598144531	73.93827056884774	-1377.465576171875	207.0033264160156	53.62950134277353	-1484.8984375	22.75690078735352	717.8585205078126	-984.1500244140625	78.41249084472656	665.3782958984376	-960.8561401367188	34.62290954589844	656.7498168945314	-983.6080932617188	64.98321533203125	335.1517944335938	-968.5358276367188	114.1828689575195	272.7858276367188	-967.1524658203125	65.25360870361328	275.4060668945313	-979.5846557617188	45.111083984375	64.05639648437507	-1070.405395507812	253.1909637451172	67.10231018066412	-1039.883422851562	200.6737365722656	66.52702331542974	-943.89501953125	334.5185546875	1214.469360351562	-1192.716552734375	nan	nan	nan	295.4732055664062	1236.9013671875	-1399.368896484375	268.8257751464844	1094.1318359375	-1459.718505859375	284.8165893554688	1030.337890625	-1458.734619140625	265.5794982910156	805.1038208007814	-1456.079711914062	245.2593231201172	744.5762939453126	-1470.46484375	272.7888793945312	747.1872558593751	-1429.28564453125	249.2406768798828	652.0748291015626	-1452.144287109375	285.3736877441406	1229.115844726562	-993.4840698242186	264.6720275878906	1047.447265625	-965.8430175781249	278.5583801269531	989.6001586914064	-994.0414428710936	255.9249877929688	983.9235839843751	-949.4106445312499	256.7010192871094	786.6340942382814	-965.1564331054688	264.7153015136719	731.6697387695314	-998.1766357421875	245.5619812011719	725.0690307617189	-951.1951904296875	238.7454986572266	647.9883422851564	-953.7876586914062	238.7224884033203	1038.547241210938	-1480.6826171875	194.4260711669922	536.1611938476564	-2314.73876953125	4.19685173034668	1157.40478515625	-1207.892333984375	0.07410579919815063	0.02321100048720837	-0.1175799965858459	0.1399679929018021	0.3166939914226532	-0.1972119957208633	0.1392969936132431	0.07757390290498735	-0.1616079956293106	0.1598870009183884	1.530230045318604	-1.998749971389771	2.01826000213623	2.972059965133667	-1.959980010986328	2.895639896392822	0	0	
